<svg width="16" height="11" viewBox="0 0 16 11" fill="none" xmlns="http://www.w3.org/2000/svg">
<path d="M15.074 1.28879L11.144 5.2849C11.1308 5.29818 11.1234 5.31614 11.1234 5.33485C11.1234 5.35357 11.1308 5.37152 11.144 5.38481L13.894 8.31094C13.9383 8.35495 13.9734 8.40726 13.9974 8.46486C14.0213 8.52247 14.0337 8.58425 14.0337 8.64663C14.0337 8.70901 14.0213 8.77078 13.9974 8.82838C13.9734 8.88599 13.9383 8.9383 13.894 8.9823C13.8048 9.07113 13.684 9.12099 13.558 9.12099C13.432 9.12099 13.3112 9.07113 13.222 8.9823L10.482 6.07713C10.4679 6.0631 10.4489 6.05522 10.429 6.05522C10.4091 6.05522 10.3901 6.0631 10.376 6.07713L9.70801 6.75547C9.43437 7.03482 9.10768 7.25681 8.74709 7.40846C8.3865 7.5601 7.99925 7.63835 7.60801 7.63861C7.20869 7.63699 6.81372 7.55574 6.44625 7.39963C6.07878 7.24352 5.7462 7.01568 5.46801 6.72949L4.82501 6.07612C4.81094 6.06209 4.79188 6.05422 4.77201 6.05422C4.75213 6.05422 4.73307 6.06209 4.71901 6.07612L1.98001 8.9913C1.89079 9.08012 1.76996 9.12998 1.64401 9.12998C1.51805 9.12998 1.39723 9.08012 1.30801 8.9913C1.26374 8.94729 1.22862 8.89498 1.20465 8.83738C1.18068 8.77977 1.16835 8.71799 1.16835 8.65561C1.16835 8.59322 1.18068 8.53146 1.20465 8.47386C1.22862 8.41625 1.26374 8.36394 1.30801 8.31994L4.05801 5.39379C4.06972 5.37977 4.07614 5.36211 4.07614 5.34385C4.07614 5.32559 4.06972 5.30791 4.05801 5.29389L0.124007 1.29779C0.113996 1.28734 0.101065 1.28014 0.0869014 1.27715C0.0727377 1.27415 0.0580007 1.2755 0.0446116 1.281C0.0312226 1.2865 0.0198039 1.2959 0.0118472 1.30798C0.00389047 1.32007 -0.000233313 1.33427 1.01945e-05 1.34873V9.35093C0.000802174 9.66042 0.124217 9.95703 0.343276 10.1759C0.562334 10.3947 0.859214 10.518 1.16901 10.5188H14.029C14.3388 10.518 14.6357 10.3947 14.8547 10.1759C15.0738 9.95703 15.1972 9.66042 15.198 9.35093V1.34873C15.1997 1.33372 15.1967 1.31855 15.1894 1.30532C15.1821 1.29208 15.1709 1.28144 15.1573 1.27486C15.1437 1.26828 15.1283 1.26608 15.1134 1.26858C15.0985 1.27107 15.0847 1.27814 15.074 1.28879Z" fill="black"/>
<path d="M7.60001 6.68236C7.86609 6.68311 8.12961 6.63043 8.37492 6.52747C8.62022 6.4245 8.84231 6.27334 9.02801 6.08295L14.759 0.255747C14.5545 0.0902142 14.2992 -7.30527e-05 14.036 4.41347e-06H1.16801C0.904677 -0.000727664 0.649206 0.089635 0.445007 0.255747L6.17601 6.08295C6.36123 6.27285 6.58268 6.42374 6.82726 6.52669C7.07185 6.62964 7.3346 6.68258 7.60001 6.68236Z" fill="black"/>
</svg>
