<svg width="15" height="15" viewBox="0 0 15 15" fill="none" xmlns="http://www.w3.org/2000/svg">
<g clip-path="url(#clip0_6_236)">
<path d="M14.991 14.621C14.71 13.379 13.104 12.773 12.549 12.578C11.8786 12.4092 11.1992 12.2786 10.514 12.187C10.1686 12.1246 9.84472 11.9752 9.57297 11.753C9.47693 11.1157 9.45612 10.4692 9.51097 9.82703C9.68245 9.55713 9.83129 9.27348 9.95597 8.97902C10.0994 8.49387 10.209 7.99935 10.284 7.49902C10.284 7.49902 10.604 7.49902 10.718 6.93702C10.867 6.51401 10.964 6.07445 11.007 5.62802C10.984 5.17902 10.737 5.19102 10.737 5.19102C10.9239 4.54115 11.0135 3.86717 11.003 3.19102C10.9149 2.32399 10.5082 1.52049 9.86157 0.936203C9.21495 0.351919 8.37447 0.0284424 7.50297 0.0284424C6.63147 0.0284424 5.791 0.351919 5.14437 0.936203C4.49775 1.52049 4.09102 2.32399 4.00297 3.19102C3.99526 3.86673 4.08348 4.54011 4.26497 5.19102C4.26497 5.19102 4.01897 5.17902 3.99497 5.62902C4.0379 6.07545 4.13495 6.51502 4.28397 6.93803C4.39297 7.50103 4.71797 7.50102 4.71797 7.50102C4.79293 8.00135 4.90253 8.49587 5.04597 8.98103C5.17067 9.27548 5.31951 9.55911 5.49097 9.82903C5.54549 10.4713 5.52434 11.1177 5.42797 11.755C5.15622 11.9772 4.83239 12.1266 4.48697 12.189C3.80176 12.2806 3.12233 12.4111 2.45197 12.58C1.89697 12.78 0.291968 13.38 0.00996772 14.623C-0.000135309 14.669 0.000281126 14.7166 0.0111732 14.7623C0.0220652 14.8081 0.0431561 14.8508 0.0728721 14.8872C0.102588 14.9237 0.140157 14.9529 0.182774 14.9728C0.22539 14.9927 0.271952 15.0027 0.318973 15.002H14.691C14.7374 15.0014 14.7832 14.9904 14.8249 14.9698C14.8665 14.9492 14.9031 14.9196 14.9318 14.8831C14.9606 14.8465 14.9808 14.8041 14.991 14.7587C15.0013 14.7134 15.0013 14.6664 14.991 14.621Z" fill="black"/>
</g>
<defs>
<clipPath id="clip0_6_236">
<rect width="15" height="15" fill="white"/>
</clipPath>
</defs>
</svg>
