<svg width="15" height="15" viewBox="0 0 15 15" fill="none" xmlns="http://www.w3.org/2000/svg">
<path d="M14.5664 11.7338C13.7666 11.0392 12.8823 10.4481 11.9344 9.97453C11.1454 9.59589 10.8564 9.60389 10.2984 10.0055C9.83337 10.3412 9.53338 10.6529 8.99838 10.536C7.06419 9.50845 5.48148 7.9269 4.45337 5.99434C4.34037 5.45585 4.65338 5.15913 4.98438 4.69558C5.38438 4.13811 5.39838 3.84939 5.01538 3.06114C4.54375 2.11278 3.95188 1.22903 3.25437 0.431655C2.68037 -0.141797 2.55438 -0.0169151 2.23538 0.095977C1.90979 0.233725 1.59749 0.400928 1.30238 0.5955C0.820238 0.870409 0.430221 1.2816 0.181377 1.77737C-0.0416233 2.25691 -0.298623 3.15106 1.01338 5.48383C1.98141 7.27005 3.20758 8.90405 4.65238 10.3332C6.08358 11.7761 7.719 13.0013 9.50637 13.9697C11.8414 15.2805 12.7354 15.0227 13.2164 14.8009C13.7143 14.5547 14.1265 14.1645 14.3994 13.681C14.5941 13.3862 14.7615 13.0742 14.8994 12.7489C15.0154 12.4362 15.1424 12.3073 14.5664 11.7338Z" fill="black"/>
</svg>
